<?xml version="1.0" encoding="iso-8859-1"?>
<!-- Uploaded to: SVG Repo, www.svgrepo.com, Generator: SVG Repo Mixer Tools -->
<!DOCTYPE svg PUBLIC "-//W3C//DTD SVG 1.1//EN" "http://www.w3.org/Graphics/SVG/1.1/DTD/svg11.dtd">
<svg fill="#000000" height="800px" width="800px" version="1.1" id="Capa_1" xmlns="http://www.w3.org/2000/svg" xmlns:xlink="http://www.w3.org/1999/xlink" 
	 viewBox="0 0 319.899 319.899" xml:space="preserve">
<g>
	<path d="M259.049,303.706v-96.22v-16.521v-43.841l59.371-63.603c2.072-2.221,1.953-5.699-0.268-7.771
		c-2.219-2.072-5.699-1.953-7.771,0.267l-60.314,64.612L146.74,201.987H114.3l59.446-59.626c0.006-0.006,0.01-0.013,0.016-0.018
		c0.154-0.156,0.296-0.323,0.429-0.493c0.037-0.049,0.073-0.098,0.108-0.146c0.118-0.162,0.229-0.33,0.326-0.502
		c0.014-0.023,0.028-0.044,0.041-0.066c0.11-0.2,0.205-0.407,0.289-0.618c0.018-0.043,0.032-0.087,0.049-0.131
		c0.064-0.175,0.119-0.353,0.166-0.533c0.014-0.05,0.027-0.099,0.039-0.149c0.051-0.222,0.09-0.445,0.113-0.672
		c0.001-0.013,0.001-0.025,0.002-0.039c0.016-0.169,0.025-0.34,0.025-0.513c0-0.04-0.005-0.079-0.006-0.118
		c-0.001-0.07-0.006-0.139-0.01-0.207c-0.011-0.173-0.028-0.346-0.055-0.519c-0.009-0.054-0.016-0.108-0.025-0.161
		c-0.042-0.229-0.097-0.455-0.169-0.679c-0.001-0.004-0.001-0.009-0.003-0.013l-8.729-26.92c-0.692-2.135-2.613-3.635-4.852-3.79
		l-29.694-2.055c-2.255-0.155-4.383,1.089-5.351,3.136l-12.211,25.826H77.939l28.088-58.003l104.941-25.253
		c0.359-0.086,0.709-0.209,1.045-0.365l60.205-28.185c2.751-1.288,3.937-4.562,2.649-7.312c-1.288-2.75-4.561-3.936-7.312-2.649
		l-59.701,27.948l-106.93,25.731c-1.601,0.385-2.945,1.467-3.662,2.949L65.72,132.98H5.498c-3.036,0-5.498,2.462-5.498,5.499v52.485
		v16.521v96.22c0,3.036,2.462,5.499,5.498,5.499H253.55C256.586,309.205,259.049,306.742,259.049,303.706z M248.051,154.616v30.851
		H196.1L248.051,154.616z M134.795,115.249l22.242,1.539l5.251,16.192h-35.877L134.795,115.249z M10.997,143.978h58.17h48.562
		h38.877l-41.363,41.488H10.997V143.978z M248.051,298.207H10.997v-85.223h90.05c0.002,0,0.004,0,0.006,0h47.197
		c0.001,0,0.002,0,0.003,0h99.798V298.207z"/>
</g>
</svg>